<?xml version="1.0" encoding="utf-8"?>
<!-- Generator: Adobe Illustrator 22.0.0, SVG Export Plug-In . SVG Version: 6.00 Build 0)  -->
<svg version="1.1" id="Layer_1" xmlns="http://www.w3.org/2000/svg" xmlns:xlink="http://www.w3.org/1999/xlink" x="0px" y="0px"
	 viewBox="0 0 1492.8 1171.1" style="enable-background:new 0 0 1492.8 1171.1;" xml:space="preserve">
<style type="text/css">
	.st0{fill:#FFFFFF;}
	.st1{fill:#F5EBDD;}
	.st2{fill:none;stroke:#FFFFFF;stroke-width:4;stroke-miterlimit:10;}
	.st3{fill:#F45E18;}
	.st4{fill:#3EC1F3;}
	.st5{fill:#C93900;}
	.st6{fill:none;stroke:#000000;stroke-width:4;stroke-linejoin:round;}
	.st7{fill:#EAA58B;}
	.st8{fill:#30242A;}
	.st9{fill:#233040;}
	.st10{fill:none;stroke:#BB7259;stroke-width:4;stroke-linecap:round;stroke-miterlimit:10;}
	.st11{fill:none;stroke:#724342;stroke-width:4;stroke-linecap:round;stroke-miterlimit:10;}
	.st12{fill:#CA7358;}
	.st13{clip-path:url(#SVGID_2_);}
	.st14{fill:none;stroke:#000000;stroke-width:4;stroke-linecap:round;stroke-linejoin:round;}
	.st15{fill:none;stroke:#F5EBDC;stroke-width:4;stroke-linecap:round;stroke-miterlimit:10;}
	.st16{fill:#A15842;}
	.st17{fill:none;stroke:#724342;stroke-width:4;stroke-linecap:round;stroke-linejoin:round;}
	.st18{fill:none;stroke:#BB7259;stroke-width:4;stroke-linecap:round;stroke-linejoin:round;}
	.st19{fill:#724342;}
	.st20{fill:#F4E6D8;}
	.st21{fill:none;stroke:#30242A;stroke-width:4;stroke-linecap:round;stroke-miterlimit:10;}
	.st22{fill:none;stroke:#000000;stroke-width:4;stroke-linecap:round;stroke-miterlimit:10;}
</style>
<title>wfh_6</title>
<g id="Layer_4">
	<path class="st0" d="M1322.1,147.9c24.7,0,44.7,20,44.7,44.7l0,0v423.7c0,24.7-20,44.7-44.7,44.7l0,0H772.5
		c-24.7,0-44.7-20-44.7-44.7V192.6c0-24.7,20-44.7,44.7-44.7H1322.1 M1322.1,143.9H772.5c-26.9,0-48.6,21.8-48.7,48.7v423.7
		c0,26.9,21.8,48.6,48.7,48.7h549.7c26.9,0,48.6-21.8,48.7-48.7V192.6C1370.8,165.7,1349,143.9,1322.1,143.9z"/>
	<path class="st1" d="M772.5,147.9h549.7c24.7,0,44.7,20,44.7,44.7v423.7c0,24.7-20,44.7-44.7,44.7H772.5c-24.7,0-44.7-20-44.7-44.7
		V192.6C727.8,167.9,747.8,147.9,772.5,147.9z"/>
	<line class="st2" x1="727.8" y1="243.9" x2="1368.8" y2="243.9"/>
	<circle class="st0" cx="774.8" cy="194.9" r="17"/>
	<circle class="st0" cx="826.3" cy="194.9" r="17"/>
	<circle class="st0" cx="877.8" cy="194.9" r="17"/>
	<path class="st0" d="M759.1,449.9c24.7,0,44.7,20,44.7,44.7v423.7c0,24.7-20,44.7-44.7,44.7H209.5c-24.7,0-44.7-20-44.7-44.7V494.6
		c0-24.7,20-44.7,44.7-44.7H759.1 M759.1,445.9H209.5c-26.9,0-48.6,21.8-48.7,48.7v423.7c0,26.9,21.8,48.6,48.7,48.7h549.7
		c26.9,0,48.6-21.8,48.7-48.7V494.6C807.8,467.7,786,445.9,759.1,445.9z"/>
	<path class="st1" d="M209.5,449.9h549.7c24.7,0,44.7,20,44.7,44.7v423.7c0,24.7-20,44.7-44.7,44.7H209.5c-24.7,0-44.7-20-44.7-44.7
		V494.6C164.8,469.9,184.8,449.9,209.5,449.9z"/>
	<line class="st2" x1="164.8" y1="545.9" x2="805.8" y2="545.9"/>
	<circle class="st0" cx="211.8" cy="496.9" r="17"/>
	<circle class="st0" cx="263.3" cy="496.9" r="17"/>
	<circle class="st0" cx="314.8" cy="496.9" r="17"/>
	<path class="st3" d="M636.2,480.5c0-0.4,0-1,0-1.6l0.5-0.4l-0.5-0.1c0-8.6-0.7-34.1-9.1-53.6c-7.4-17.3-17.7-25.3-24.8-22.2
		s-8.4,16-1,33.3c4.1,9.6,10.6,18.9,16.9,26.6c-12.6-11.9-29.8-26.7-45.3-34.9c-21-11-37.3-10.7-41.9-2s4.5,22.3,25.5,33.3
		c13.7,7.2,32.3,12.5,48.1,16.1c-8.5-0.3-17,0.4-25.3,2.1c-18.4,4.1-28.1,12.7-26.4,20.3s14.2,11.2,32.5,7
		c20.5-4.6,41.3-18.7,48.5-23.9l1.3,0.2c0.5,0.5,0.8,0.8,0.8,0.8s0-0.2,0-0.6h0.3L636.2,480.5z"/>
	<polygon class="st4" points="838.1,571.4 837.8,571.1 837.8,571.8 	"/>
	<polygon class="st3" points="814.2,595.7 813.9,547.5 789.3,523.1 789.8,620.3 	"/>
	<polygon class="st3" points="644.2,463 645,625.1 669.6,649.5 668.6,438.4 	"/>
	<polygon class="st3" points="563.6,544.5 621.1,601.5 620.6,487 	"/>
	<polygon class="st3" points="766.1,644.2 765.4,499.5 740.8,475.1 741.8,668.8 	"/>
	<polygon class="st3" points="716.9,451.4 692.3,427.1 693.5,673.2 715.7,695.1 718.1,692.7 	"/>
	<polygon class="st5" points="620.6,487 621.1,601.5 645,625.1 644.2,463 	"/>
	<polygon class="st5" points="686,420.8 668.6,438.4 669.6,649.5 693.5,673.2 692.3,427.1 	"/>
	<polygon class="st5" points="741.8,668.8 740.8,475.1 716.9,451.4 718.1,692.7 	"/>
	<polygon class="st5" points="789.8,620.3 789.3,523.1 765.4,499.5 766.1,644.2 	"/>
	<polygon class="st5" points="837.8,571.8 837.8,571.1 813.9,547.5 814.2,595.7 	"/>
	<line class="st6" x1="724" y1="458.9" x2="601.8" y2="582.4"/>
	
		<rect x="547.1" y="475" transform="matrix(0.7035 -0.7107 0.7107 0.7035 -165.2521 605.5729)" class="st5" width="192" height="51.6"/>
	<path class="st7" d="M655.8,634.9c0,0,13-43,5-50c-9.7-8.5-26,19-39.2,52c-13.8,34.7-54,133-56,140c0,0-68.4-37.4-99-51
		c-27-12-59.9-16.4-59.9-16.4l-4.2-25.1c0,0,19.5,7,36.3-2.8s20.9-27.9,15.4-55.8c-3.3-16.5-3.2-37-6-55.3c-11.1,1.9-27.5-2-27.5-2
		c-22.3,25.1-46,30.7-46,30.7c-15.4-16.7-43.3-16.7-47.4,7c-4.6,26.3,27.9,33.5,27.9,33.5s6.6,38.2-7.4,76.2
		c-19.5,52.8-97.9,66.8-130,44c-58,41-6.7,165.6,42,224c40,48,182,23,182,23s16,12,35,16c34,67,48,48,48,48s12,13,21-1
		c18,1,17-10,1-48c18,22,35.6,22.1,36,16c1-16-52-72-85-86c-24.8-10.5-37-14-37-14l-5-81c0,0,106.1,58.3,156,31c64-35,90-207,90-207
		L655.8,634.9z"/>
	<path class="st8" d="M347.8,715.9c14-38,7.3-76.1,7.3-76.1s-32.5-7.2-27.9-33.5c4.2-23.7,32.1-23.7,47.4-7c0,0,23.7-5.6,46-30.7
		c0,0,16.3,3.8,27.5,2c-2-12.6-5.3-24.1-12.1-32.7c-16.7-20.9-62.8-34.9-99-8.4s-33.5,69.8-32.1,86.5c0,0-62.7-15.4-96.1,31.8
		c-41,58,9,112,9,112C249.9,782.7,328.3,768.7,347.8,715.9z"/>
	<path class="st9" d="M457.6,885.3l-1.8-28.4h0.1l-8.4-138.2c-9.2-2.9-18.6-5.2-28.1-7.1l-4.6,95.3h-78l-29.6-48.2
		c-10.6,5.2-21.9,8.8-33.6,10.5l44.6,110.4l16.6,41.3c0,0,38,2,72,7s54,10,54,10L457.6,885.3z"/>
	<path class="st10" d="M657.3,637.4c-0.8,2.6-1.7,5.2-2.5,7.5c0,0,25.5,29.5,9.5,67.5"/>
	<line class="st10" x1="563.3" y1="776" x2="552.8" y2="802.9"/>
	<path class="st10" d="M550.8,1026.6c-4.2-9.6-9.5-20.8-14.1-29"/>
	<path class="st10" d="M518,1007.5c12,21.1,21.4,44.8,27.3,61.4"/>
	<path class="st10" d="M499.3,1019.4c9,16.5,17.8,35.8,24.3,50.9"/>
	<line class="st11" x1="459.3" y1="897.4" x2="326.3" y2="896.4"/>
	<path class="st12" d="M286,960.6c-13.2-4.5-27.8-1.7-38.4,7.4c4,5.7,8.1,11.1,12.2,16c11.1,13.3,29.9,21,51.4,25.1
		C316.7,988.7,305.8,967.4,286,960.6z"/>
	<path class="st12" d="M611.8,887.9c8.7-4.8,16.7-12,24-21.1c-4.7-7.1-11.7-12.5-19.8-15.3c-20.8-7.1-43.5,4.3-50.8,25.5
		c-1.9,5.5-2.6,11.4-2.1,17.2C581.3,896.4,598.5,895.2,611.8,887.9z"/>
	<path class="st3" d="M273.6,769.2c-21.5,3.2-42.6,0.1-55.8-9.3c-42.1,29.8-26.6,103.7,3.8,164.3l96.6-44.6L273.6,769.2z"/>
	<path class="st3" d="M347.8,715.9c-7.2,19.6-22.6,33.8-40.6,42.8l29.6,48.2h78l4.6-95.2c-7.7-1.5-12.7-2.2-12.7-2.2l-1.9-11.6H353
		C351.7,704,350,710,347.8,715.9z"/>
	<path class="st3" d="M466.6,725.9c-6.2-2.7-12.6-5.1-19.1-7.1l8.4,138.2c13.3,7,26.9,13.3,40.9,18.9l41-114
		C515.3,749.9,484.5,733.9,466.6,725.9z"/>
	<ellipse transform="matrix(0.866 -0.5 0.5 0.866 -360.3496 192.7659)" class="st8" cx="179.5" cy="768.8" rx="56" ry="48.6"/>
	<g>
		<g>
			<defs>
				<ellipse id="SVGID_1_" transform="matrix(0.866 -0.5 0.5 0.866 -360.3496 192.7659)" cx="179.5" cy="768.8" rx="56" ry="48.6"/>
			</defs>
			<clipPath id="SVGID_2_">
				<use xlink:href="#SVGID_1_"  style="overflow:visible;"/>
			</clipPath>
			<g class="st13">
				<path class="st14" d="M193.3,714.4c0,0,7,42,41,55"/>
			</g>
		</g>
	</g>
	<line class="st15" x1="949.3" y1="467.4" x2="953.3" y2="497.4"/>
	<path class="st16" d="M1281.8,431.9c0,0,45-53-5-98c-30.6-27.5-67.3-19.8-67.3-19.8c1.4-16.7,4.2-60-32.1-86.5s-82.3-12.6-99.1,8.4
		s-12.6,60-18.1,87.9s-1.4,46,15.3,55.8s36.3,2.8,36.3,2.8l-4.2,25.1c0,0-32.9,4.4-59.9,16.4c-30.6,13.6-99,51-99,51
		c-2-7-13-121-18-158c-3.8-28.2-17-63-27-56c-9.7,6.8-6,29-6,29l-51,53c0,0-25.2,181.7,35,231c44,36,159-22,159-22l-15,109h137.2
		c0,0-25.7,6.8-79.2,31c-62,28-98,106-94,112s16,1,32-19c-14,52,0,48,9,47c9.2,13.2,21-3,21-3s16,15,41-55c11.4-5.4,21.8-12.4,31-21
		c0,0,159-10,190-66S1323.8,484.9,1281.8,431.9z"/>
	<circle class="st8" cx="1074" cy="307.1" r="4.2"/>
	<line class="st10" x1="334.3" y1="919.4" x2="311.3" y2="918.4"/>
	<path class="st10" d="M402.2,686.8c-6-2.1-11.9-4.6-17.5-7.7"/>
	<path class="st14" d="M303.3,615.8c0.8,7.6,1.8,17.1,2.8,24.6"/>
	<path class="st17" d="M397.3,896.3c0,0-23.2-32.8-12.4-37.1C393.5,855.7,396,881.3,397.3,896.3z"/>
	<path class="st17" d="M398,896.9c0,0,11.4-26.3,18.5-22.1C422.3,878.2,407.1,890,398,896.9z"/>
	<line class="st10" x1="409" y1="710.2" x2="410.8" y2="720.9"/>
	<line class="st10" x1="359.2" y1="617.4" x2="346.8" y2="610.4"/>
	<path class="st18" d="M418.7,640.8c0.7,13.1,14.2,14.2,17.5,5L418.7,640.8z"/>
	<circle class="st19" cx="410.6" cy="613.6" r="4.2"/>
	<circle class="st19" cx="441.5" cy="606.1" r="4.2"/>
	<path class="st10" d="M430.9,618.6c1,2.7,1.9,5.6,1.6,6.7c-0.4,1.3-1.3,2.4-2.4,3.2"/>
	<path class="st9" d="M394.2,507.6l5.3,5.8l3.5,3.9l0,0l0,0c2.2,7.8-14,20.2-36.6,27.9s-43,7.8-46,0.2l0,0l0,0l0.4-5.2l0.6-7.8
		c8.5,2,23.2,0.4,38.9-5S388.7,514.4,394.2,507.6z"/>
	<path class="st3" d="M354.3,509.6c11.8-4,21.9-9.3,28.5-14.6l11.5,12.6c-5.5,6.8-18.1,14.5-33.8,19.8s-30.4,7-38.9,5l1.4-17
		C331.3,515.6,342.5,513.7,354.3,509.6z"/>
	<path class="st9" d="M370.5,481.5l12.3,13.5c-6.6,5.3-16.7,10.6-28.5,14.6s-23,6-31.5,5.8l1.5-18.2
		C340.6,495.3,356.3,490,370.5,481.5L370.5,481.5z"/>
	<path class="st3" d="M342.1,474c5.3-1.8,10.5-4,15.6-6.5l12.8,14.1c-14.1,8.4-29.9,13.8-46.2,15.8l1.5-18.9
		C331.3,477.3,336.8,475.8,342.1,474z"/>
	<path class="st9" d="M325.8,478.4l3.4-42.2l28.5,31.3c-5,2.5-10.2,4.7-15.6,6.5C336.8,475.8,331.3,477.3,325.8,478.4z"/>
	<circle class="st3" cx="326.8" cy="429.1" r="15.4"/>
	<circle class="st20" cx="351.3" cy="644.4" r="12.5"/>
	<path class="st9" d="M1134.9,709.8l2.6,5.8l15.4,34.5c47.4-5.9,138.3-22.2,160.9-63.1c31-56,10-202-32-255l0,0
		c-35,38.5-89.1,28-110.8-4c-4,1-8.1,1.7-12.2,2c-6.4,0.6-12.9,0.3-19.2-0.8c-7.6-1.3-14.8-4.3-21-8.9c-7.9-5.9-10.8-12.4-10.8-12.4
		l-1.3-0.2c-6.1,0.9-34.7,5.5-58.7,16.2c-30.6,13.6-99,51-99,51c-0.9-3.1-3.6-27.9-6.8-57.5l-38.8,15L899,434l-20.1,7.8l-36.5,14.1
		c2.6,47.1,12.5,95.9,39.5,117.9c44,36,159-22,159-22l-15,109h137.2c0,0-14.1,3.8-43,15.5l6.7,14.9L1134.9,709.8z"/>
	<path class="st3" d="M945.8,529.9c-25.4,0-46,20.6-46,46c0,2.4,0.2,4.8,0.5,7.1c26.2,7,62.3-1.2,91.3-11
		C989.6,548.2,969.7,529.9,945.8,529.9z"/>
	<path class="st3" d="M900.8,446.9c0-4.3-0.6-8.7-1.8-12.8l-20.1,7.8L842.4,456c0.7,12.1,1.8,24.3,3.6,36.1
		c24.9,4.9,49.1-11.4,54-36.3C900.5,452.8,900.8,449.9,900.8,446.9z"/>
	<path class="st3" d="M1033.8,478.9c25.4,0,46-20.6,46-46c0-6.4-1.4-12.8-4-18.7c-9.6,2.5-18.9,5.8-28,9.7
		c-14.1,6.3-36.2,17.6-55.9,27.9C999.3,468.3,1015.7,478.9,1033.8,478.9z"/>
	<circle class="st3" cx="1145.8" cy="537.9" r="46"/>
	<path class="st3" d="M1055.8,610.9c-8.5,0-16.8,2.3-24,6.8l-6,43.2h75.8c0.1-1.3,0.2-2.7,0.2-4
		C1101.8,631.5,1081.2,610.9,1055.8,610.9z"/>
	<path class="st3" d="M1220.9,456.3c0,0.9-0.1,1.7-0.1,2.6c0,25.4,20.6,46,46,46c16.8,0,32.2-9.1,40.3-23.8
		c-7.1-19.8-15.6-37-25.3-49.2l0,0C1264.1,451.3,1241.6,458.3,1220.9,456.3z"/>
	<path class="st3" d="M1263.8,650.9c0,24.2,18.7,44.2,42.8,45.9c2.8-3,5.2-6.3,7.2-9.9c10.2-18.4,14.8-46.6,14.8-78
		c-23.2-10.4-50.4,0-60.8,23.2C1265.2,638,1263.8,644.4,1263.8,650.9z"/>
	<path class="st3" d="M1166.8,696.9c-11.9,0-23.3,4.6-31.9,12.8l2.6,5.8l15.4,34.5c20.1-2.4,40-5.9,59.8-10.3
		C1211,715.6,1190.9,696.9,1166.8,696.9z"/>
	<path class="st15" d="M1244.3,632.4c-26.9,9.2-63.1,20.3-85.5,27.5"/>
	<line class="st15" x1="1215.8" y1="535.2" x2="1225.3" y2="638.4"/>
	<path class="st21" d="M1019.1,787.5c3.3-10.1,10.3-30.9,16.4-44.3"/>
	<path class="st21" d="M1055.1,751.6c-13.9,30-22.1,64.2-25.2,78.4"/>
	<path class="st21" d="M1074.6,761.4c-9,20.8-16.9,49.1-21.3,66.5"/>
	<line class="st15" x1="1044" y1="516.4" x2="1038.6" y2="552.7"/>
	<path class="st8" d="M1276.8,333.9c-30.6-27.5-67.3-19.8-67.3-19.8c1.4-16.7,4.2-60-32.1-86.5s-82.3-12.6-99.1,8.4
		c-6.8,8.5-10.2,20.1-12.1,32.6c11.1,1.9,27.5-2,27.5-2c22.3,25.1,46,30.7,46,30.7c15.3-16.7,43.3-16.7,47.4,7
		c4.6,26.3-27.9,33.5-27.9,33.5s-6.9,37.4,4.5,75.1c1.6,5.3,4,10.4,7.2,15c21.7,32,75.8,42.5,110.8,4c1.7-2.1,3.3-4.4,4.8-6.7
		C1296.7,409.6,1316.1,369.3,1276.8,333.9z"/>
	<path class="st21" d="M1111.7,384.2c6.5-1.9,12.7-4.5,18.6-7.8"/>
	<path class="st22" d="M1211.1,313.8c-0.8,7.6-1.8,17.1-2.8,24.6"/>
	<line class="st21" x1="1155.2" y1="315.4" x2="1167.6" y2="308.4"/>
	<path class="st21" d="M1084.4,347.8c2.3,1.4,10.9,2.5,14.3-4"/>
	<circle class="st8" cx="1107" cy="312.6" r="4.2"/>
	<path class="st21" d="M1083.9,322.7c-0.6,2.8-1.2,5.8-0.7,6.8c0.6,1.2,1.6,2.2,2.8,2.8"/>
	
		<ellipse transform="matrix(0.2258 -0.9742 0.9742 0.2258 525.4142 1274.9133)" class="st22" cx="1064.8" cy="306.9" rx="20" ry="18"/>
	
		<ellipse transform="matrix(0.2258 -0.9742 0.9742 0.2258 552.6644 1323.2034)" class="st22" cx="1108.8" cy="313.9" rx="20" ry="18"/>
	<line class="st22" x1="1083.3" y1="309.4" x2="1090.3" y2="310.4"/>
	<path class="st21" d="M885.3,295.4c0,0,19,16,21,20c0,0-31,32-7,71"/>
	<path class="st8" d="M984.5,180.8L984.5,180.8c3.8,2.3,4.9,7.2,2.6,11L835.6,439.4c-2.3,3.8-7.2,4.9-11,2.6l0,0
		c-3.8-2.3-4.9-7.2-2.6-11l151.5-247.6C975.8,179.7,980.7,178.6,984.5,180.8z"/>
	<path class="st3" d="M1000.9,127.5l17.2-13.8c3.8-3,9.3-2.4,12.4,1.4c1.6,2,2.3,4.6,1.8,7.2l-4.1,21.7c-0.7,3.5,0.8,7,3.8,9
		l18.4,12.1c4.1,2.7,5.2,8.1,2.5,12.2c-1.4,2.2-3.7,3.6-6.3,3.9l-21.8,2.7c-3.5,0.4-6.4,3-7.4,6.4l-5.8,21.3
		c-1.3,4.7-6.1,7.4-10.8,6.2c-2.5-0.7-4.5-2.4-5.6-4.7l-9.4-20c-1.5-3.2-4.8-5.2-8.4-5l-22,1c-4.9,0.3-9-3.4-9.3-8.2
		c-0.2-2.6,0.9-5.2,2.8-7l16.1-15.1c2.6-2.4,3.5-6.2,2.2-9.5l-7.8-20.6c-1.7-4.6,0.6-9.6,5.1-11.4c2.4-0.9,5.1-0.7,7.4,0.5
		l19.3,10.6C994.3,130,998.1,129.7,1000.9,127.5z"/>
	<path class="st16" d="M897.8,289.9c-7-6-20.5-9.9-27-6c-11.1,6.6-8.3,19.3-8.3,19.3s-18-2.8-17.8,15.6c0,0-14.5,6.3-8.2,20.8
		c0,0-12.5,3.2-6.6,18.6c4.9,12.6,16,19.2,22.9,22.6c6,3,15.2-1.3,12-13c0,0,7,2,11-2c5.5-5.5,3-16,3-16s7,2,12-2c6.1-4.9,3-14,3-14
		c4.6-0.6,8.4-3.7,10-8c4-10-11-22-11-22L897.8,289.9z"/>
	<path class="st21" d="M835.8,340.3c8.8,10.7,18.5,20.6,29,29.6"/>
	<path class="st21" d="M844.8,318.8c10.3,12.6,22.1,24,35.1,33.8"/>
	<path class="st21" d="M860.8,304.1c9.4,12.4,20.8,23.2,33.7,32.1"/>
	<path class="st21" d="M885.3,295.4c0,0,9.4,7.9,15.6,14"/>
	<path class="st3" d="M1120.2,205.6l-5.3,5.8l-3.5,3.9l0,0l0,0c-2.2,7.8,14,20.2,36.6,27.9s43,7.8,46,0.2l0,0l0,0l-0.4-5.2l-0.6-7.8
		c-8.5,2-23.2,0.4-38.9-5S1125.7,212.4,1120.2,205.6z"/>
	<path class="st9" d="M1160.2,207.6c-11.8-4-21.9-9.3-28.5-14.6l-11.5,12.6c5.5,6.8,18.1,14.5,33.8,19.8s30.4,7,38.9,5l-1.4-17
		C1183.2,213.6,1172,211.7,1160.2,207.6z"/>
	<path class="st3" d="M1144,179.5l-12.3,13.5c6.6,5.3,16.7,10.6,28.5,14.6s23,6,31.5,5.8l-1.5-18.2
		C1173.8,193.3,1158.1,188,1144,179.5z"/>
	<path class="st9" d="M1172.3,172c-5.3-1.8-10.5-4-15.6-6.5l-12.8,14c14.1,8.4,29.9,13.8,46.2,15.8l-1.5-18.9
		C1183.1,175.3,1177.6,173.8,1172.3,172z"/>
	<path class="st3" d="M1188.6,176.4l-3.4-42.2l-28.5,31.3c5,2.5,10.2,4.7,15.6,6.5C1177.6,173.8,1183.1,175.3,1188.6,176.4z"/>
	<circle class="st9" cx="1187.6" cy="127.1" r="15.4"/>
</g>
</svg>
