<?xml version="1.0" encoding="utf-8"?>
<!-- Generator: Adobe Illustrator 25.0.0, SVG Export Plug-In . SVG Version: 6.00 Build 0)  -->
<svg version="1.1" id="Camada_1" xmlns="http://www.w3.org/2000/svg" xmlns:xlink="http://www.w3.org/1999/xlink" x="0px" y="0px"
	 viewBox="0 0 80 40" style="enable-background:new 0 0 80 40;" xml:space="preserve">
<style type="text/css">
	.st0{fill:#233040;}
	.st1{fill:#F45E18;}
</style>
<g>
	<path class="st0" d="M13.6,15.3c1.2,0.6,2.1,1.6,2.8,2.7c0.7,1.2,1,2.5,1,4.1c0,1.5-0.3,2.9-1,4.1c-0.7,1.2-1.6,2.1-2.8,2.8
		c-1.2,0.6-2.5,1-4,1c-1,0-2-0.2-2.9-0.5c-0.9-0.4-1.6-0.9-2.2-1.6v2H1.1V8.5h3.6v7.8c0.6-0.7,1.3-1.2,2.2-1.5
		c0.8-0.3,1.7-0.5,2.7-0.5C11.1,14.3,12.4,14.6,13.6,15.3z M12.4,25.6c0.8-0.9,1.3-2,1.3-3.5c0-1.4-0.4-2.6-1.3-3.5
		c-0.8-0.9-1.9-1.3-3.2-1.3c-0.9,0-1.6,0.2-2.3,0.6c-0.7,0.4-1.2,0.9-1.6,1.7c-0.4,0.7-0.6,1.6-0.6,2.5c0,1,0.2,1.8,0.6,2.5
		c0.4,0.7,0.9,1.3,1.6,1.7c0.7,0.4,1.5,0.6,2.3,0.6C10.5,26.9,11.6,26.4,12.4,25.6z"/>
	<path class="st0" d="M33.6,23.2h-12c0.2,1.1,0.8,2,1.6,2.7c0.9,0.7,2,1,3.3,1c1.7,0,3.1-0.6,4.1-1.7l1.9,2.2
		c-0.7,0.8-1.6,1.4-2.6,1.9c-1,0.4-2.2,0.6-3.5,0.6c-1.7,0-3.2-0.3-4.4-1c-1.3-0.7-2.3-1.6-3-2.8c-0.7-1.2-1-2.5-1-4
		c0-1.5,0.3-2.8,1-4c0.7-1.2,1.6-2.1,2.8-2.8c1.2-0.7,2.6-1,4.1-1c1.5,0,2.8,0.3,4,1s2.1,1.6,2.7,2.8c0.7,1.2,1,2.6,1,4.1
		C33.7,22.4,33.6,22.8,33.6,23.2z M23,18.2c-0.8,0.7-1.3,1.6-1.4,2.7h8.7c-0.2-1.1-0.6-2-1.4-2.7c-0.8-0.7-1.8-1-2.9-1
		C24.8,17.2,23.8,17.5,23,18.2z"/>
	<path class="st1" d="M51.8,14.1v15.6h-6.1v-1.5c-0.6,0.6-1.2,1-2,1.3c-0.8,0.3-1.6,0.4-2.4,0.4c-2,0-3.6-0.6-4.8-1.8
		c-1.2-1.2-1.8-3-1.8-5.5v-8.6h6.5v7.5c0,1.1,0.2,1.8,0.5,2.3c0.3,0.5,0.8,0.7,1.5,0.7c0.6,0,1.2-0.3,1.6-0.8
		c0.4-0.5,0.6-1.3,0.6-2.4v-7.3H51.8z"/>
	<path class="st1" d="M68.8,15.6c1.2,1.2,1.8,2.9,1.8,5.3v8.9h-6.5v-7.8c0-1.8-0.6-2.7-1.9-2.7c-0.7,0-1.3,0.3-1.8,0.8
		c-0.4,0.5-0.7,1.3-0.7,2.4v7.3h-6.5V14.1h6.1v1.5c0.6-0.6,1.3-1.1,2.1-1.4c0.8-0.3,1.7-0.5,2.6-0.5C66,13.8,67.6,14.4,68.8,15.6z"
		/>
	<path class="st1" d="M72.3,11.9c-0.7-0.6-1.1-1.4-1.1-2.4c0-1,0.4-1.7,1.1-2.4C73,6.6,74,6.3,75.1,6.3c1.2,0,2.1,0.3,2.8,0.9
		C78.6,7.7,79,8.5,79,9.4c0,1-0.4,1.8-1.1,2.4c-0.7,0.6-1.6,1-2.8,1C74,12.8,73,12.5,72.3,11.9z M71.9,14.1h6.5v15.6h-6.5V14.1z"/>
</g>
</svg>
